<svg width="122" height="122" viewBox="0 0 122 122" fill="none" xmlns="http://www.w3.org/2000/svg">
<g clip-path="url(#clip0_158_558)">
<path d="M122.001 29.5364C121.496 30.3747 121.132 31.3531 120.461 32.0213C119.079 33.3906 117.334 33.7187 115.507 32.9938C113.639 32.251 112.598 30.7983 112.499 28.7966C112.341 25.6106 111.21 22.9467 108.623 20.9838C107.092 19.8234 105.352 19.1731 103.448 19.1075C101.273 19.0329 99.0911 19.0896 96.7366 19.0896C96.7366 20.7273 96.7933 22.3382 96.7246 23.9461C96.5635 27.6749 92.5826 29.7989 89.4611 27.839C87.966 26.9023 87.2498 25.4943 87.2229 23.7462C87.1991 22.2427 87.217 20.7362 87.217 19.1433H65.5308C65.5308 20.5483 65.5398 21.9623 65.5308 23.3763C65.5099 26.4191 63.5791 28.543 60.8188 28.5729C58.0106 28.6027 56.0232 26.4549 56.0023 23.3614C55.9933 21.9772 56.0023 20.596 56.0023 19.1343H34.5578C34.5578 20.5692 34.5668 21.9862 34.5578 23.4031C34.5339 26.434 32.5823 28.5609 29.8219 28.5758C27.0585 28.5908 25.0621 26.4638 25.0322 23.4568C25.0173 22.0369 25.0322 20.6139 25.0322 18.9255C22.2152 19.0717 19.4369 18.8957 16.8018 19.4297C12.424 20.3156 9.66065 24.1131 9.55023 28.6982C9.5174 30.0465 9.54426 31.3979 9.54426 32.7462C9.54426 55.8832 9.54725 79.0201 9.54128 102.16C9.54128 106.28 11.105 109.552 14.8949 111.354C16.3423 112.043 18.091 112.356 19.7084 112.383C26.0976 112.497 32.4927 112.401 38.8849 112.44C42.7942 112.464 45.104 116.386 43.1613 119.626C42.2779 121.1 40.9321 121.923 39.2341 121.929C32.0869 121.956 24.9338 122.126 17.7986 121.86C8.33566 121.508 0.478268 113.388 0.0515272 103.932C0.0395904 103.655 0.0246694 103.377 0.0246694 103.1C0.0246694 78.2147 -0.0141251 53.3326 0.0425746 28.4476C0.0604798 20.2321 5.1933 13.186 12.988 10.5997C15.0203 9.92548 17.2524 9.76439 19.41 9.57049C21.2155 9.40642 23.0507 9.53768 25.0352 9.53768C25.0352 8.29969 25.1009 7.12136 25.0233 5.95497C24.8263 3.00468 26.0021 0.982135 28.849 0.00964355H30.7559C33.5939 0.982135 34.7786 2.99573 34.5817 5.94304C34.5041 7.11241 34.5697 8.28776 34.5697 9.45415H56.0142C56.0142 8.23108 56.0799 7.0796 56.0023 5.94304C55.8023 2.99573 56.987 0.979152 59.828 0.00964355H61.7349C64.5729 0.982135 65.7576 2.99573 65.5606 5.94304C65.4831 7.11241 65.5487 8.28776 65.5487 9.45415H87.2319C87.2319 8.23108 87.2975 7.08258 87.22 5.94304C87.02 2.99573 88.2047 0.979152 91.0457 0.00964355H92.9526C95.7936 0.982135 96.9753 2.99871 96.7783 5.94602C96.7008 7.1154 96.7664 8.29074 96.7664 9.55558C99.1389 9.55558 101.359 9.45117 103.567 9.57348C111.088 9.99409 116.65 13.5798 120.04 20.2858C121.001 22.189 121.38 24.3846 122.025 26.4459V29.5424L122.001 29.5364Z" fill="#AAD933"/>
<path d="M122 59.3071C121.462 61.801 120.704 64.2024 119.093 66.2518C116.303 69.7957 112.665 71.7496 108.156 71.8988C104.942 72.0032 101.725 71.9584 98.508 71.9197C95.6969 71.8839 93.6229 69.7897 93.6557 67.1109C93.6885 64.4828 95.7386 62.4632 98.505 62.4155C100.845 62.3767 103.187 62.4065 105.849 62.4065C104.897 61.3267 104.169 60.3542 103.298 59.5368C93.411 50.2653 81.9845 47.6223 69.3762 52.6697C58.7674 56.9146 52.3245 65.0854 50.537 76.4241C48.0959 91.9065 56.8128 106.002 71.7248 110.897C79.8508 113.564 87.8454 112.803 95.5387 109.009C96.4519 108.558 97.4158 108.072 98.4035 107.935C100.654 107.618 102.701 109.015 103.396 111.121C104.124 113.331 103.31 115.733 101.098 116.777C98.135 118.176 95.1269 119.634 91.9756 120.455C78.666 123.924 66.4368 121.394 55.6758 112.845C47.4573 106.315 42.4826 97.6937 41.0174 87.2528C39.1582 73.981 42.9989 62.4244 52.2947 52.8248C58.5824 46.3336 66.3294 42.4048 75.3357 41.1967C89.1107 39.3531 100.842 43.5384 110.606 53.3618C111.164 53.9226 111.686 54.5222 112.226 55.1009C112.241 55.1188 112.292 55.1009 112.474 55.1009C112.474 52.7413 112.423 50.3787 112.489 48.019C112.546 46.0174 113.536 44.5377 115.393 43.7472C117.204 42.9746 118.959 43.249 120.364 44.5974C121.074 45.2776 121.462 46.2948 121.997 47.1599V59.3071H122Z" fill="#AAD933"/>
<path d="M122 84.3174C121.451 85.988 120.589 87.396 118.846 88.0553C116.39 88.983 113.644 87.7391 112.713 85.287C111.782 82.8378 113.027 80.0844 115.483 79.1537C117.936 78.223 120.657 79.455 121.609 81.925C121.735 82.2472 121.869 82.5664 122 82.8885V84.3174Z" fill="#AAD933"/>
<path d="M86.0221 74.0794C86.0221 76.3406 85.9982 78.5988 86.031 80.86C86.0549 82.5992 85.4551 84.0281 84.1182 85.1467C81.6562 87.211 79.2241 89.3081 76.7353 91.3367C74.6105 93.0669 71.7248 92.8133 70.0119 90.8295C68.2959 88.8428 68.4989 85.9909 70.5699 84.1295C72.2202 82.6469 73.9331 81.2299 75.658 79.8338C76.2638 79.3416 76.5204 78.8315 76.5114 78.032C76.4697 74.3061 76.4577 70.5772 76.5114 66.8513C76.5473 64.5096 78.1587 62.6899 80.4148 62.2514C82.4977 61.8457 84.7329 62.9852 85.5595 64.9988C85.852 65.7088 85.9803 66.5292 85.9982 67.3048C86.0549 69.563 86.0191 71.8242 86.0191 74.0824L86.0221 74.0794Z" fill="#AAD933"/>
<path d="M106.432 101.33C106.441 98.681 108.556 96.5899 111.209 96.6137C113.847 96.6376 115.951 98.7884 115.909 101.42C115.868 104.006 113.755 106.091 111.185 106.079C108.515 106.067 106.426 103.979 106.435 101.333L106.432 101.33Z" fill="#AAD933"/>
</g>
<defs>
<clipPath id="clip0_158_558">
<rect width="122" height="122" fill="white"/>
</clipPath>
</defs>
</svg>
